<svg xmlns="http://www.w3.org/2000/svg" viewBox="0 38 1290 252" fill="none" stroke="#434c56" stroke-width="1.5" aria-label="One artwork, imagined to your configuration">
  <defs><clipPath id="clip-c1-0"><rect x="77" y="77" width="326" height="156"></rect></clipPath><clipPath id="clip-c2-0"><rect x="497" y="73" width="164" height="164"></rect></clipPath><clipPath id="clip-c2-1"><rect x="689" y="73" width="164" height="164"></rect></clipPath><clipPath id="clip-c3-0"><rect x="947" y="77" width="71" height="156"></rect></clipPath><clipPath id="clip-c3-1"><rect x="1044" y="77" width="71" height="156"></rect></clipPath><clipPath id="clip-c3-2"><rect x="1141" y="77" width="71" height="156"></rect></clipPath></defs>

  <g class="frames">
    <rect x="70" y="70" width="340" height="170"></rect><rect x="77" y="77" width="326" height="156"></rect>
  </g>
  <g class="art" clip-path="url(#clip-c1-0)" stroke-linecap="round" stroke-linejoin="round">
      <path d="M 77 186.2 C 129.2 126.9 181.3 114.4 233.5 142.5"></path>
      <path d="M 116.1 176.8 C 86.8 158.1 109.6 128.5 152 137.8 C 184.6 145.6 174.8 170.6 132.4 168.3 C 109.6 166.7 104.7 155 124.3 153.4"></path>
      <path d="M 77 208 C 135.7 170.6 187.8 204.9 233.5 176.8"></path>
      <path d="M 187.8 126.9 C 210.7 112.9 230.2 119.1 240 130.8"></path>
      <path d="M 187.8 183.1 C 210.7 197.1 230.2 190.9 240 179.2"></path>
      <path d="M 240 120.7 C 204.1 137.8 204.1 172.2 240 189.3"></path>
      <path d="M 240 134.7 C 220.4 145.6 220.4 164.4 240 175.3"></path>
      <path d="M 403 186.2 C 350.8 126.9 298.7 114.4 246.5 142.5"></path>
      <path d="M 363.9 176.8 C 393.2 158.1 370.4 128.5 328 137.8 C 295.4 145.6 305.2 170.6 347.6 168.3 C 370.4 166.7 375.3 155 355.7 153.4"></path>
      <path d="M 403 208 C 344.3 170.6 292.2 204.9 246.5 176.8"></path>
      <path d="M 292.2 126.9 C 269.3 112.9 249.8 119.1 240 130.8"></path>
      <path d="M 292.2 183.1 C 269.3 197.1 249.8 190.9 240 179.2"></path>
      <path d="M 240 120.7 C 275.9 137.8 275.9 172.2 240 189.3"></path>
      <path d="M 240 134.7 C 259.6 145.6 259.6 164.4 240 175.3"></path>
      <path d="M 142.2 125.4 C 191.1 103.5 288.9 103.5 337.8 125.4"></path>
      <path d="M 142.2 184.6 C 191.1 206.5 288.9 206.5 337.8 184.6"></path>
      <circle cx="240" cy="155" r="9"></circle>
      <circle cx="240" cy="155" r="3.4"></circle>
  </g>
  <g class="frames">
    <rect x="490" y="66" width="178" height="178"></rect><rect x="497" y="73" width="164" height="164"></rect>
    <rect x="682" y="66" width="178" height="178"></rect><rect x="689" y="73" width="164" height="164"></rect>
  </g>
  <g class="art" clip-path="url(#clip-c2-0)" stroke-linecap="round" stroke-linejoin="round">
      <path d="M 497 187.8 C 549.5 125.5 602 112.4 654.4 141.9"></path>
      <path d="M 536.4 178 C 506.8 158.3 529.8 127.1 572.4 137 C 605.2 145.2 595.4 171.4 552.8 168.9 C 529.8 167.3 524.9 155 544.6 153.4"></path>
      <path d="M 497 210.8 C 556 171.4 608.5 207.5 654.4 178"></path>
      <path d="M 608.5 125.5 C 631.5 110.7 651.2 117.3 661 129.6"></path>
      <path d="M 608.5 184.5 C 631.5 199.3 651.2 192.7 661 180.4"></path>
      <path d="M 661 118.9 C 624.9 137 624.9 173 661 191.1"></path>
      <path d="M 661 133.7 C 641.3 145.2 641.3 164.8 661 176.3"></path>
      <path d="M 825 187.8 C 772.5 125.5 720 112.4 667.6 141.9"></path>
      <path d="M 785.6 178 C 815.2 158.3 792.2 127.1 749.6 137 C 716.8 145.2 726.6 171.4 769.2 168.9 C 792.2 167.3 797.1 155 777.4 153.4"></path>
      <path d="M 825 210.8 C 766 171.4 713.5 207.5 667.6 178"></path>
      <path d="M 713.5 125.5 C 690.5 110.7 670.8 117.3 661 129.6"></path>
      <path d="M 713.5 184.5 C 690.5 199.3 670.8 192.7 661 180.4"></path>
      <path d="M 661 118.9 C 697.1 137 697.1 173 661 191.1"></path>
      <path d="M 661 133.7 C 680.7 145.2 680.7 164.8 661 176.3"></path>
      <path d="M 562.6 123.8 C 611.8 100.9 710.2 100.9 759.4 123.8"></path>
      <path d="M 562.6 186.2 C 611.8 209.1 710.2 209.1 759.4 186.2"></path>
      <circle cx="661" cy="155" r="9"></circle>
      <circle cx="661" cy="155" r="3.4"></circle>
  </g>
  <g class="art" clip-path="url(#clip-c2-1)" stroke-linecap="round" stroke-linejoin="round">
      <path d="M 525 187.8 C 577.5 125.5 630 112.4 682.4 141.9"></path>
      <path d="M 564.4 178 C 534.8 158.3 557.8 127.1 600.4 137 C 633.2 145.2 623.4 171.4 580.8 168.9 C 557.8 167.3 552.9 155 572.6 153.4"></path>
      <path d="M 525 210.8 C 584 171.4 636.5 207.5 682.4 178"></path>
      <path d="M 636.5 125.5 C 659.5 110.7 679.2 117.3 689 129.6"></path>
      <path d="M 636.5 184.5 C 659.5 199.3 679.2 192.7 689 180.4"></path>
      <path d="M 689 118.9 C 652.9 137 652.9 173 689 191.1"></path>
      <path d="M 689 133.7 C 669.3 145.2 669.3 164.8 689 176.3"></path>
      <path d="M 853 187.8 C 800.5 125.5 748 112.4 695.6 141.9"></path>
      <path d="M 813.6 178 C 843.2 158.3 820.2 127.1 777.6 137 C 744.8 145.2 754.6 171.4 797.2 168.9 C 820.2 167.3 825.1 155 805.4 153.4"></path>
      <path d="M 853 210.8 C 794 171.4 741.5 207.5 695.6 178"></path>
      <path d="M 741.5 125.5 C 718.5 110.7 698.8 117.3 689 129.6"></path>
      <path d="M 741.5 184.5 C 718.5 199.3 698.8 192.7 689 180.4"></path>
      <path d="M 689 118.9 C 725.1 137 725.1 173 689 191.1"></path>
      <path d="M 689 133.7 C 708.7 145.2 708.7 164.8 689 176.3"></path>
      <path d="M 590.6 123.8 C 639.8 100.9 738.2 100.9 787.4 123.8"></path>
      <path d="M 590.6 186.2 C 639.8 209.1 738.2 209.1 787.4 186.2"></path>
      <circle cx="689" cy="155" r="9"></circle>
      <circle cx="689" cy="155" r="3.4"></circle>
  </g>
  <g class="frames">
    <rect x="940" y="70" width="85" height="170"></rect><rect x="947" y="77" width="71" height="156"></rect>
    <rect x="1037" y="70" width="85" height="170"></rect><rect x="1044" y="77" width="71" height="156"></rect>
    <rect x="1134" y="70" width="85" height="170"></rect><rect x="1141" y="77" width="71" height="156"></rect>
  </g>
  <g class="art" clip-path="url(#clip-c3-0)" stroke-linecap="round" stroke-linejoin="round">
      <path d="M 947 186.2 C 981.1 126.9 1015.2 114.4 1049.2 142.5"></path>
      <path d="M 972.6 176.8 C 953.4 158.1 968.3 128.5 996 137.8 C 1017.3 145.6 1010.9 170.6 983.2 168.3 C 968.3 166.7 965.1 155 977.9 153.4"></path>
      <path d="M 947 208 C 985.3 170.6 1019.4 204.9 1049.2 176.8"></path>
      <path d="M 1019.4 126.9 C 1034.3 112.9 1047.1 119.1 1053.5 130.8"></path>
      <path d="M 1019.4 183.1 C 1034.3 197.1 1047.1 190.9 1053.5 179.2"></path>
      <path d="M 1053.5 120.7 C 1030.1 137.8 1030.1 172.2 1053.5 189.3"></path>
      <path d="M 1053.5 134.7 C 1040.7 145.6 1040.7 164.4 1053.5 175.3"></path>
      <path d="M 1160 186.2 C 1125.9 126.9 1091.8 114.4 1057.8 142.5"></path>
      <path d="M 1134.4 176.8 C 1153.6 158.1 1138.7 128.5 1111 137.8 C 1089.7 145.6 1096.1 170.6 1123.8 168.3 C 1138.7 166.7 1141.9 155 1129.1 153.4"></path>
      <path d="M 1160 208 C 1121.7 170.6 1087.6 204.9 1057.8 176.8"></path>
      <path d="M 1087.6 126.9 C 1072.7 112.9 1059.9 119.1 1053.5 130.8"></path>
      <path d="M 1087.6 183.1 C 1072.7 197.1 1059.9 190.9 1053.5 179.2"></path>
      <path d="M 1053.5 120.7 C 1076.9 137.8 1076.9 172.2 1053.5 189.3"></path>
      <path d="M 1053.5 134.7 C 1066.3 145.6 1066.3 164.4 1053.5 175.3"></path>
      <path d="M 989.6 125.4 C 1021.6 103.5 1085.5 103.5 1117.4 125.4"></path>
      <path d="M 989.6 184.6 C 1021.6 206.5 1085.5 206.5 1117.4 184.6"></path>
      <circle cx="1053.5" cy="155" r="9"></circle>
      <circle cx="1053.5" cy="155" r="3.4"></circle>
  </g>
  <g class="art" clip-path="url(#clip-c3-1)" stroke-linecap="round" stroke-linejoin="round">
      <path d="M 973 186.2 C 1007.1 126.9 1041.2 114.4 1075.2 142.5"></path>
      <path d="M 998.6 176.8 C 979.4 158.1 994.3 128.5 1022 137.8 C 1043.3 145.6 1036.9 170.6 1009.2 168.3 C 994.3 166.7 991.1 155 1003.9 153.4"></path>
      <path d="M 973 208 C 1011.3 170.6 1045.4 204.9 1075.2 176.8"></path>
      <path d="M 1045.4 126.9 C 1060.3 112.9 1073.1 119.1 1079.5 130.8"></path>
      <path d="M 1045.4 183.1 C 1060.3 197.1 1073.1 190.9 1079.5 179.2"></path>
      <path d="M 1079.5 120.7 C 1056.1 137.8 1056.1 172.2 1079.5 189.3"></path>
      <path d="M 1079.5 134.7 C 1066.7 145.6 1066.7 164.4 1079.5 175.3"></path>
      <path d="M 1186 186.2 C 1151.9 126.9 1117.8 114.4 1083.8 142.5"></path>
      <path d="M 1160.4 176.8 C 1179.6 158.1 1164.7 128.5 1137 137.8 C 1115.7 145.6 1122.1 170.6 1149.8 168.3 C 1164.7 166.7 1167.9 155 1155.1 153.4"></path>
      <path d="M 1186 208 C 1147.7 170.6 1113.6 204.9 1083.8 176.8"></path>
      <path d="M 1113.6 126.9 C 1098.7 112.9 1085.9 119.1 1079.5 130.8"></path>
      <path d="M 1113.6 183.1 C 1098.7 197.1 1085.9 190.9 1079.5 179.2"></path>
      <path d="M 1079.5 120.7 C 1102.9 137.8 1102.9 172.2 1079.5 189.3"></path>
      <path d="M 1079.5 134.7 C 1092.3 145.6 1092.3 164.4 1079.5 175.3"></path>
      <path d="M 1015.6 125.4 C 1047.6 103.5 1111.5 103.5 1143.4 125.4"></path>
      <path d="M 1015.6 184.6 C 1047.6 206.5 1111.5 206.5 1143.4 184.6"></path>
      <circle cx="1079.5" cy="155" r="9"></circle>
      <circle cx="1079.5" cy="155" r="3.4"></circle>
  </g>
  <g class="art" clip-path="url(#clip-c3-2)" stroke-linecap="round" stroke-linejoin="round">
      <path d="M 999 186.2 C 1033.1 126.9 1067.2 114.4 1101.2 142.5"></path>
      <path d="M 1024.6 176.8 C 1005.4 158.1 1020.3 128.5 1048 137.8 C 1069.3 145.6 1062.9 170.6 1035.2 168.3 C 1020.3 166.7 1017.1 155 1029.9 153.4"></path>
      <path d="M 999 208 C 1037.3 170.6 1071.4 204.9 1101.2 176.8"></path>
      <path d="M 1071.4 126.9 C 1086.3 112.9 1099.1 119.1 1105.5 130.8"></path>
      <path d="M 1071.4 183.1 C 1086.3 197.1 1099.1 190.9 1105.5 179.2"></path>
      <path d="M 1105.5 120.7 C 1082.1 137.8 1082.1 172.2 1105.5 189.3"></path>
      <path d="M 1105.5 134.7 C 1092.7 145.6 1092.7 164.4 1105.5 175.3"></path>
      <path d="M 1212 186.2 C 1177.9 126.9 1143.8 114.4 1109.8 142.5"></path>
      <path d="M 1186.4 176.8 C 1205.6 158.1 1190.7 128.5 1163 137.8 C 1141.7 145.6 1148.1 170.6 1175.8 168.3 C 1190.7 166.7 1193.9 155 1181.1 153.4"></path>
      <path d="M 1212 208 C 1173.7 170.6 1139.6 204.9 1109.8 176.8"></path>
      <path d="M 1139.6 126.9 C 1124.7 112.9 1111.9 119.1 1105.5 130.8"></path>
      <path d="M 1139.6 183.1 C 1124.7 197.1 1111.9 190.9 1105.5 179.2"></path>
      <path d="M 1105.5 120.7 C 1128.9 137.8 1128.9 172.2 1105.5 189.3"></path>
      <path d="M 1105.5 134.7 C 1118.3 145.6 1118.3 164.4 1105.5 175.3"></path>
      <path d="M 1041.6 125.4 C 1073.6 103.5 1137.5 103.5 1169.4 125.4"></path>
      <path d="M 1041.6 184.6 C 1073.6 206.5 1137.5 206.5 1169.4 184.6"></path>
      <circle cx="1105.5" cy="155" r="9"></circle>
      <circle cx="1105.5" cy="155" r="3.4"></circle>
  </g>

  <g class="arrow"><line x1="424" y1="153" x2="474" y2="153"></line><line x1="474" y1="153" x2="469" y2="148"></line><line x1="474" y1="153" x2="469" y2="158"></line></g>
  <g class="arrow"><line x1="884" y1="153" x2="924" y2="153"></line><line x1="924" y1="153" x2="919" y2="148"></line><line x1="924" y1="153" x2="919" y2="158"></line></g>

  <text x="240" y="58" text-anchor="middle" font-family="&#39;Helvetica Neue&#39;,Arial,sans-serif" font-weight="500" font-size="14" letter-spacing="0.3" fill="#434c56">Your artwork</text>
  <text x="675" y="54" text-anchor="middle" font-family="&#39;Helvetica Neue&#39;,Arial,sans-serif" font-weight="500" font-size="14" letter-spacing="0.3" fill="#434c56">Imagined</text>
  <text x="1079.5" y="58" text-anchor="middle" font-family="&#39;Helvetica Neue&#39;,Arial,sans-serif" font-weight="500" font-size="14" letter-spacing="0.3" fill="#434c56">to your configuration</text>

  <text x="240" y="262" text-anchor="middle" font-family="&#39;Helvetica Neue&#39;,Arial,sans-serif" font-size="12" letter-spacing="0.4" fill="#434c56" fill-opacity="0.62">4 × 2 ft · single panel</text>
  <text x="675" y="266" text-anchor="middle" font-family="&#39;Helvetica Neue&#39;,Arial,sans-serif" font-size="12" letter-spacing="0.4" fill="#434c56" fill-opacity="0.62">2 × 2 ft · split pair</text>
  <text x="1079.5" y="262" text-anchor="middle" font-family="&#39;Helvetica Neue&#39;,Arial,sans-serif" font-size="12" letter-spacing="0.4" fill="#434c56" fill-opacity="0.62">1 × 2 ft · triptych</text>
</svg>