<svg xmlns="http://www.w3.org/2000/svg" viewBox="0 0 120 120" fill="none" stroke="#434c56" stroke-width="1.5" stroke-linecap="round" stroke-linejoin="round" aria-label="Install Rockwool">
  
  <rect x="18" y="22" width="84" height="76"></rect>
  <rect x="30" y="34" width="60" height="52"></rect>
  <line x1="18" y1="22" x2="30" y2="34"></line>
  <line x1="102" y1="22" x2="90" y2="34"></line>
  <line x1="102" y1="98" x2="90" y2="86"></line>
  <line x1="18" y1="98" x2="30" y2="86"></line>

  
  <path d="M33 41 Q45 38 57 41 T87 41"></path>
  <path d="M33 50 Q45 53 57 50 T87 50"></path>
  <path d="M33 60 Q45 57 57 60 T87 60"></path>
  <path d="M33 70 Q45 73 57 70 T87 70"></path>
  <path d="M33 79 Q45 76 57 79 T87 79"></path>
</svg>