<svg xmlns="http://www.w3.org/2000/svg" viewBox="0 0 24 24" width="24" height="24">
  
      <g fill="none" stroke="#434c56" stroke-width="1.4" stroke-linecap="round" stroke-linejoin="round">
        <path d="M0.6 4.6 L0.6 0.6 L4.6 0.6"></path>
        <path d="M23.4 4.6 L23.4 0.6 L19.4 0.6"></path>
        <path d="M0.6 19.4 L0.6 23.4 L4.6 23.4"></path>
        <path d="M23.4 19.4 L23.4 23.4 L19.4 23.4"></path>
      </g>
    
  <path d="M5 5.5 C 5 4.4, 5.9 3.5, 7 3.5 L9 3.5 C 10 3.5, 10.4 4, 10.6 4.7 L11.7 7.6 C 11.9 8.3, 11.6 9, 11 9.4 L9.6 10.3 C 10.7 12.7, 12.3 14.3, 14.7 15.4 L15.6 14 C 16 13.4, 16.7 13.1, 17.4 13.3 L20.3 14.4 C 21 14.6, 21.5 15, 21.5 16 L21.5 18 C 21.5 19.1, 20.6 20, 19.5 20 C 11.5 20, 5 13.5, 5 5.5 Z" fill="none" stroke="#1c1c1d" stroke-width="2" stroke-linecap="round" stroke-linejoin="round"></path>
</svg>