<svg xmlns="http://www.w3.org/2000/svg" viewBox="0 0 24 24" width="24" height="24">
  
      <g fill="none" stroke="#434c56" stroke-width="1.4" stroke-linecap="round" stroke-linejoin="round">
        <path d="M0.6 4.6 L0.6 0.6 L4.6 0.6"></path>
        <path d="M23.4 4.6 L23.4 0.6 L19.4 0.6"></path>
        <path d="M0.6 19.4 L0.6 23.4 L4.6 23.4"></path>
        <path d="M23.4 19.4 L23.4 23.4 L19.4 23.4"></path>
      </g>
    
  <path d="M2.5 12 C 6 6.5, 11 5.5, 12 5.5 C 13 5.5, 18 6.5, 21.5 12 C 18 17.5, 13 18.5, 12 18.5 C 11 18.5, 6 17.5, 2.5 12 Z" fill="none" stroke="#1c1c1d" stroke-width="2" stroke-linecap="round" stroke-linejoin="round"></path>
  <circle cx="12" cy="12" r="3.6" fill="none" stroke="#1c1c1d" stroke-width="2" stroke-linecap="round" stroke-linejoin="round"></circle>
  <circle cx="12" cy="12" r="1.3" fill="#1c1c1d"></circle>
  <circle cx="13.4" cy="10.7" r="0.45" fill="#f8f8f8"></circle>
</svg>