<svg xmlns="http://www.w3.org/2000/svg" viewBox="0 0 24 24" width="24" height="24">
  
      <g fill="none" stroke="#434c56" stroke-width="0.7" stroke-linecap="square">
        <path d="M1.5 3.1 L1.5 1.5 L3.1 1.5"></path>
        <path d="M22.5 3.1 L22.5 1.5 L20.9 1.5"></path>
        <path d="M1.5 20.9 L1.5 22.5 L3.1 22.5"></path>
        <path d="M22.5 20.9 L22.5 22.5 L20.9 22.5"></path>
      </g>
    
  <path d="M5 5.5 C 5 4.4, 5.9 3.5, 7 3.5 L9 3.5 C 10 3.5, 10.4 4, 10.6 4.7 L11.7 7.6 C 11.9 8.3, 11.6 9, 11 9.4 L9.6 10.3 C 10.7 12.7, 12.3 14.3, 14.7 15.4 L15.6 14 C 16 13.4, 16.7 13.1, 17.4 13.3 L20.3 14.4 C 21 14.6, 21.5 15, 21.5 16 L21.5 18 C 21.5 19.1, 20.6 20, 19.5 20 C 11.5 20, 5 13.5, 5 5.5 Z" fill="none" stroke="#1c1c1d" stroke-width="1.4" stroke-linecap="square" stroke-linejoin="miter"></path>
</svg>