<svg xmlns="http://www.w3.org/2000/svg" viewBox="0 0 24 24" width="24" height="24">
  
      <g fill="none" stroke="#434c56" stroke-width="0.7" stroke-linecap="square">
        <path d="M1.5 3.1 L1.5 1.5 L3.1 1.5"></path>
        <path d="M22.5 3.1 L22.5 1.5 L20.9 1.5"></path>
        <path d="M1.5 20.9 L1.5 22.5 L3.1 22.5"></path>
        <path d="M22.5 20.9 L22.5 22.5 L20.9 22.5"></path>
      </g>
    
  <path d="M5 11 L5 16.5 L7 16.5 L7 20 L17 20 L17 16.5 L19 16.5 L19 11 C 19 10, 18.4 9.4, 17.4 9.4 L6.6 9.4 C 5.6 9.4, 5 10, 5 11 Z" fill="none" stroke="#1c1c1d" stroke-width="1.4" stroke-linecap="square" stroke-linejoin="miter"></path>
  <path d="M8 4 L16 4 L16 9.4 L8 9.4 Z" fill="none" stroke="#1c1c1d" stroke-width="1.4" stroke-linecap="square" stroke-linejoin="miter"></path>
  <path d="M9 13.5 L15 13.5" fill="none" stroke="#434c56" stroke-width="0.8" stroke-linecap="butt" stroke-linejoin="miter" stroke-dasharray="1.4 1.2"></path>
  <path d="M9 15.5 L13 15.5" fill="none" stroke="#434c56" stroke-width="0.8" stroke-linecap="butt" stroke-linejoin="miter" stroke-dasharray="1.4 1.2"></path>
  <path d="M9 17.5 L15 17.5" fill="none" stroke="#434c56" stroke-width="0.8" stroke-linecap="butt" stroke-linejoin="miter" stroke-dasharray="1.4 1.2"></path>
  <circle cx="17" cy="12.5" r="0.6" fill="#1c1c1d"></circle>
</svg>