<svg xmlns="http://www.w3.org/2000/svg" viewBox="0 0 24 24" width="24" height="24">
  
      <g fill="none" stroke="#434c56" stroke-width="0.7" stroke-linecap="square">
        <path d="M1.5 3.1 L1.5 1.5 L3.1 1.5"></path>
        <path d="M22.5 3.1 L22.5 1.5 L20.9 1.5"></path>
        <path d="M1.5 20.9 L1.5 22.5 L3.1 22.5"></path>
        <path d="M22.5 20.9 L22.5 22.5 L20.9 22.5"></path>
      </g>
    
  <path d="M8 11 L8 6.5 C 8 5.4, 8.8 4.7, 9.6 4.7 C 10.4 4.7, 11.2 5.4, 11.2 6.5 L11.2 10.5 L12.4 10.5 L12.4 5.2 C 12.4 4.1, 13.2 3.4, 14 3.4 C 14.8 3.4, 15.6 4.1, 15.6 5.2 L15.6 10.5 L16.8 10.5 L16.8 6.5 C 16.8 5.4, 17.6 4.7, 18.4 4.7 C 19.2 4.7, 20 5.4, 20 6.5 L20 14.5 C 20 18.4, 17.2 21, 13.6 21 C 10 21, 6 18.5, 6 14.5 L6 12 C 6 11.2, 6.6 10.6, 7.4 10.6 C 7.7 10.6, 8 10.7, 8 11 Z" fill="none" stroke="#1c1c1d" stroke-width="1.4" stroke-linecap="square" stroke-linejoin="miter"></path>
</svg>