<svg xmlns="http://www.w3.org/2000/svg" viewBox="0 0 24 24" width="24" height="24">
  
      <g fill="none" stroke="#434c56" stroke-width="0.7" stroke-linecap="square">
        <path d="M1.5 3.1 L1.5 1.5 L3.1 1.5"></path>
        <path d="M22.5 3.1 L22.5 1.5 L20.9 1.5"></path>
        <path d="M1.5 20.9 L1.5 22.5 L3.1 22.5"></path>
        <path d="M22.5 20.9 L22.5 22.5 L20.9 22.5"></path>
      </g>
    
  <path d="M3.5 6.5 L20.5 6.5" fill="none" stroke="#1c1c1d" stroke-width="1.4" stroke-linecap="square" stroke-linejoin="miter"></path>
  <path d="M9.5 6.5 L9.5 4.5 C 9.5 4, 9.9 3.5, 10.5 3.5 L13.5 3.5 C 14.1 3.5, 14.5 4, 14.5 4.5 L14.5 6.5" fill="none" stroke="#1c1c1d" stroke-width="1.4" stroke-linecap="square" stroke-linejoin="miter"></path>
  <path d="M5.5 6.5 L6.5 19.5 C 6.6 20.3, 7.2 20.5, 7.7 20.5 L16.3 20.5 C 16.8 20.5, 17.4 20.3, 17.5 19.5 L18.5 6.5" fill="none" stroke="#1c1c1d" stroke-width="1.4" stroke-linecap="square" stroke-linejoin="miter"></path>
  <path d="M10 10 L10 17" fill="none" stroke="#434c56" stroke-width="0.8" stroke-linecap="butt" stroke-linejoin="miter" stroke-dasharray="1.4 1.2"></path>
  <path d="M14 10 L14 17" fill="none" stroke="#434c56" stroke-width="0.8" stroke-linecap="butt" stroke-linejoin="miter" stroke-dasharray="1.4 1.2"></path>
</svg>