<svg xmlns="http://www.w3.org/2000/svg" viewBox="0 0 24 24" width="24" height="24">
  
      <g fill="none" stroke="#434c56" stroke-width="0.7" stroke-linecap="square">
        <path d="M1.5 3.1 L1.5 1.5 L3.1 1.5"></path>
        <path d="M22.5 3.1 L22.5 1.5 L20.9 1.5"></path>
        <path d="M1.5 20.9 L1.5 22.5 L3.1 22.5"></path>
        <path d="M22.5 20.9 L22.5 22.5 L20.9 22.5"></path>
      </g>
    
  <path d="M2.5 12 C 6 6.5, 11 5.5, 12 5.5 C 13 5.5, 18 6.5, 21.5 12 C 18 17.5, 13 18.5, 12 18.5 C 11 18.5, 6 17.5, 2.5 12 Z" fill="none" stroke="#1c1c1d" stroke-width="1.4" stroke-linecap="square" stroke-linejoin="miter"></path>
  <circle cx="12" cy="12" r="3.6" fill="none" stroke="#1c1c1d" stroke-width="1.4" stroke-linecap="square" stroke-linejoin="miter"></circle>
  <circle cx="12" cy="12" r="1.3" fill="#1c1c1d"></circle>
  <circle cx="13.4" cy="10.7" r="0.45" fill="#f8f8f8"></circle>
</svg>