<svg xmlns="http://www.w3.org/2000/svg" viewBox="0 0 24 24" width="24" height="24">
  
      <g fill="none" stroke="#434c56" stroke-width="1.4" stroke-linecap="round" stroke-linejoin="round">
        <path d="M0.6 4.6 L0.6 0.6 L4.6 0.6"></path>
        <path d="M23.4 4.6 L23.4 0.6 L19.4 0.6"></path>
        <path d="M0.6 19.4 L0.6 23.4 L4.6 23.4"></path>
        <path d="M23.4 19.4 L23.4 23.4 L19.4 23.4"></path>
      </g>
    
  <path d="M8 11 L8 6.5 C 8 5.4, 8.8 4.7, 9.6 4.7 C 10.4 4.7, 11.2 5.4, 11.2 6.5 L11.2 10.5 L12.4 10.5 L12.4 5.2 C 12.4 4.1, 13.2 3.4, 14 3.4 C 14.8 3.4, 15.6 4.1, 15.6 5.2 L15.6 10.5 L16.8 10.5 L16.8 6.5 C 16.8 5.4, 17.6 4.7, 18.4 4.7 C 19.2 4.7, 20 5.4, 20 6.5 L20 14.5 C 20 18.4, 17.2 21, 13.6 21 C 10 21, 6 18.5, 6 14.5 L6 12 C 6 11.2, 6.6 10.6, 7.4 10.6 C 7.7 10.6, 8 10.7, 8 11 Z" fill="none" stroke="#1c1c1d" stroke-width="2" stroke-linecap="round" stroke-linejoin="round"></path>
</svg>